# xmcd
#
# Track frame offsets: 
#        150
#        18488
#        34236
#        51767
#        68530
#        96881
#
# Disc length: 2430 seconds
#
# Revision: 0
# Processed by: cddbd v1.5.2PL0 Copyright (c) Steve Scherf et al.
# Submitted via: ExactAudioCopyFreeDBPlugin 1.0
#
DISCID=46097c06
DTITLE=Various Artist - Viva 1999
DYEAR=1999
DGENRE=Christian
TTITLE0=Silage - Verb
TTITLE1=All Star United - If We Were Lovers
TTITLE2=FFH - I Want To Be Like You
TTITLE3=Mukala - Skip to the End
TTITLE4=Plumb - Stranded
TTITLE5=Data Track
EXTD=
EXTT0=
EXTT1=
EXTT2=
EXTT3=
EXTT4=
EXTT5=
PLAYORDER=
